<?xml version="1.0" encoding="utf-8"?>
<!-- Generator: Adobe Illustrator 19.0.0, SVG Export Plug-In . SVG Version: 6.00 Build 0)  -->
<svg version="1.1" id="Layer_1" xmlns="http://www.w3.org/2000/svg" xmlns:xlink="http://www.w3.org/1999/xlink" x="0px" y="0px"
	 viewBox="0 0 1280 800" style="enable-background:new 0 0 1280 800;" xml:space="preserve">
<style type="text/css">
	.st0{fill:#242C2D;}
	.st1{fill:#344142;}
	.st2{font-family:'Roboto-Regular';}
	.st3{font-size:39px;}
	.st4{font-size:30.0344px;}
	.st5{font-size:17.7957px;}
	.st6{font-size:29.8903px;}
	.st7{font-size:37.8359px;}
	.st8{font-size:37.3685px;}
	.st9{font-size:28.9556px;}
	.st10{font-size:50.3693px;}
	.st11{font-size:29.995px;}
	.st12{font-size:30.7454px;}
	.st13{font-size:28.7831px;}
	.st14{font-size:28.153px;}
	.st15{font-size:21.8972px;}
	.st16{font-size:29.7543px;}
	.st17{font-size:31.112px;}
	.st18{font-size:33.3502px;}
	.st19{font-size:22.7889px;}
	.st20{font-size:30.7879px;}
	.st21{font-size:25.7963px;}
	.st22{font-size:31.7204px;}
	.st23{font-size:27.3781px;}
	.st24{font-size:38.2873px;}
	.st25{font-size:29.9409px;}
	.st26{font-size:38.3321px;}
	.st27{font-size:38.9306px;}
	.st28{font-size:31.905px;}
	.st29{font-size:31.68px;}
</style>
<rect id="XMLID_18_" x="-29" class="st0" width="1338" height="800"/>
<text id="XMLID_17_" transform="matrix(0.9162 0 0 1 162.1875 339.8169)" class="st1 st2 st3">major</text>
<text id="XMLID_22_" transform="matrix(0.9162 0 0 1 327.1895 197.0215)" class="st1 st2 st4">additional</text>
<text id="XMLID_23_" transform="matrix(0.9162 0 0 1 208.4649 206.3398)" class="st1 st2 st5">BytePad</text>
<text id="XMLID_24_" transform="matrix(0.9162 0 0 1 220.3042 121.479)" class="st1 st2 st6">solutions</text>
<text id="XMLID_26_" transform="matrix(0.9693 0 0 1 303.2788 50.0586)" class="st1 st2 st7">communication</text>
<text id="XMLID_27_" transform="matrix(0.9923 0 0 1 920.9121 78.7734)" class="st1 st2 st8">electrical</text>
<text id="XMLID_28_" transform="matrix(0.9523 0 0 1 1073.8594 198.4624)" class="st1 st2 st9">maths</text>
<text id="XMLID_29_" transform="matrix(0.9523 0 0 1 982.5117 315.8594)" class="st1 st2 st10">PUT</text>
<text id="XMLID_30_" transform="matrix(0.9379 0 0 1 974.5654 408.4336)" class="st1 st2 st11">morning shift</text>
<text id="XMLID_31_" transform="matrix(0.9124 0 0 1 717.4395 143.1709)" class="st1 st2 st12">computer science</text>
<text id="XMLID_32_" transform="matrix(0.9523 0 0 1 682.9473 253.5654)" class="st1 st2 st13">solution</text>
<text id="XMLID_33_" transform="matrix(0.9523 0 0 1 483.0884 149.249)" class="st1 st2 st14">exam</text>
<text id="XMLID_34_" transform="matrix(0.9523 0 0 1 413.6475 337.1914)" class="st1 st2 st15">electronics</text>
<text id="XMLID_35_" transform="matrix(0.9523 0 0 1 253.5737 414.6826)" class="st1 st2 st16">evening shift</text>
<text id="XMLID_36_" transform="matrix(0.9523 0 0 1 81.9165 475.3564)" class="st1 st2 st17">solution</text>
<text id="XMLID_37_" transform="matrix(0.9523 0 0 1 384.77 543.4043)" class="st1 st2 st18">paper</text>
<text id="XMLID_38_" transform="matrix(0.9523 0 0 1 601.0864 453.2578)" class="st1 st2 st19">sessionals</text>
<text id="XMLID_39_" transform="matrix(0.9523 0 0 1 678.6865 620.458)" class="st1 st2 st20">study</text>
<text id="XMLID_40_" transform="matrix(0.9523 0 0 1 465.4321 633.5107)" class="st1 st2 st21">mechanical</text>
<text id="XMLID_41_" transform="matrix(0.9784 0 0 1 166.4814 592.9092)" class="st1 st2 st22">engineering</text>
<text id="XMLID_42_" transform="matrix(0.9523 0 0 1 49.4082 740.042)" class="st1 st2 st10">college</text>
<text id="XMLID_43_" transform="matrix(0.9808 0 0 1 260.4956 699.9229)" class="st1 st2 st23">chemistry</text>
<text id="XMLID_44_" transform="matrix(0.9523 0 0 1 379.7964 776.3203)" class="st1 st2 st24">debarrd</text>
<text id="XMLID_45_" transform="matrix(0.9523 0 0 1 520.2822 691.0029)" class="st1 st2 st25">microprocessor</text>
<text id="XMLID_46_" transform="matrix(0.9523 0 0 1 781.3154 735.1396)" class="st1 st2 st26">information technology</text>
<text id="XMLID_48_" transform="matrix(0.9523 0 0 1 897.1084 602.8682)" class="st1 st2 st27">BytePad</text>
<text id="XMLID_49_" transform="matrix(0.9523 0 0 1 1099.7178 644.958)" class="st1 st2 st28">solution</text>
<text id="XMLID_50_" transform="matrix(0.9523 0 0 1 897.1123 502.9697)" class="st1 st2 st29">power</text>
<text id="XMLID_54_" transform="matrix(0.9523 0 0 1 1128.5713 519.1211)" class="st1 st2 st10">minor</text>
<text id="XMLID_25_" transform="matrix(0.9162 0 0 1 104.1743 100.5562)" class="st1 st2 st6">life</text>
</svg>
